<svg xmlns="http://www.w3.org/2000/svg" viewBox="0 0 148.98 149.77"><defs><style>.cls-1{fill:#fefefe;}</style></defs><title>fbW_1</title><g id="Слой_2" data-name="Слой 2"><g id="Слой_1-2" data-name="Слой 1"><g id="Слой_1-2-2" data-name="Слой 1-2"><path class="cls-1" d="M74.45,0A75,75,0,0,0,63.24,149.07l3.92.59V90.57H49.45v-12H67.16V62.63c0-9.81,2.35-16.27,6.25-20.33s9.66-6.09,17.67-6.09a72.17,72.17,0,0,1,11.28.68v9.82H94a12.25,12.25,0,0,0-10.63,6.16c-2,3.51-2.64,7.72-2.64,12v13.7h20.87l-1.86,12h-19v59.2l3.86-.53A75,75,0,0,0,74.45,0Zm0,6.82A68,68,0,0,1,87.56,141.59V97.38h18l4-25.64h-22V64.86c0-3.53.64-6.7,1.73-8.61A4.59,4.59,0,0,1,94,53.52h15.16V30.71l-3-.4A105,105,0,0,0,91,29.39c-9.21,0-17.12,2.51-22.58,8.19s-8.16,14.13-8.16,25.05v9.12H42.62V97.38H60.34v44A68,68,0,0,1,74.45,6.82Z"/></g></g></g></svg>