<svg xmlns="http://www.w3.org/2000/svg" viewBox="0 0 150 150"><defs><style>.cls-1{fill:#fefefe;}</style></defs><title>inW</title><g id="Слой_2" data-name="Слой 2"><g id="Слой_1-2" data-name="Слой 1"><g id="Слой_1-2-2" data-name="Слой 1-2"><path class="cls-1" d="M75,0a75,75,0,1,0,75,75A75,75,0,0,0,75,0Zm0,143.41A68.41,68.41,0,1,1,143.41,75h0A68.49,68.49,0,0,1,75,143.41Z"/><path class="cls-1" d="M75,53.22A21.78,21.78,0,1,0,96.78,75h0A21.8,21.8,0,0,0,75,53.22Zm0,37.42A15.64,15.64,0,1,1,90.64,75h0A15.66,15.66,0,0,1,75,90.64Z"/><path class="cls-1" d="M88.5,32.14h-27A29.39,29.39,0,0,0,32.14,61.5v27A29.39,29.39,0,0,0,61.5,117.86h27A29.39,29.39,0,0,0,117.86,88.5v-27A29.39,29.39,0,0,0,88.5,32.14Zm0,79.58h-27A23.25,23.25,0,0,1,38.28,88.5v-27A23.25,23.25,0,0,1,61.5,38.28h27A23.25,23.25,0,0,1,111.72,61.5v27A23.25,23.25,0,0,1,88.5,111.72Z"/><path class="cls-1" d="M97.5,44.34a8.16,8.16,0,1,0,8.16,8.16A8.16,8.16,0,0,0,97.5,44.34Zm0,10.18a2,2,0,1,1,2-2A2,2,0,0,1,97.5,54.52Z"/></g></g></g></svg>