<svg xmlns="http://www.w3.org/2000/svg" viewBox="0 0 150 150"><defs><style>.cls-1{fill:#fefefe;}</style></defs><title>linW</title><g id="Слой_2" data-name="Слой 2"><g id="Слой_1-2" data-name="Слой 1"><g id="Слой_1-2-2" data-name="Слой 1-2"><path class="cls-1" d="M75,0a75,75,0,1,0,75,75A75,75,0,0,0,75,0Zm0,6.52A68.48,68.48,0,1,1,6.52,75h0A68.43,68.43,0,0,1,74.9,6.52ZM45.65,32.61a9.79,9.79,0,1,0,9.78,9.8v0A9.83,9.83,0,0,0,45.65,32.61Zm0,6.52a3.26,3.26,0,1,1-3.26,3.26h0a3.21,3.21,0,0,1,3.16-3.26Zm-6.52,16.3a3.36,3.36,0,0,0-1.25.25,3.25,3.25,0,0,0-1.76,1.77,3.17,3.17,0,0,0-.25,1.25v48.91a3.17,3.17,0,0,0,.25,1.25,3.47,3.47,0,0,0,.7,1,3,3,0,0,0,1.06.71,3.17,3.17,0,0,0,1.25.25h13a3.09,3.09,0,0,0,1.24-.25,3,3,0,0,0,1.06-.71,3.09,3.09,0,0,0,.71-1,3.35,3.35,0,0,0,.24-1.25V58.7a3.21,3.21,0,0,0-1-2.31,3.59,3.59,0,0,0-1.06-.71,3.27,3.27,0,0,0-1.24-.25Zm26.09,0a3.36,3.36,0,0,0-1.25.25,3.27,3.27,0,0,0-1.77,1.77A3.31,3.31,0,0,0,62,58.7v48.91a2.94,2.94,0,0,0,1,2.25,3,3,0,0,0,1.06.71,3.17,3.17,0,0,0,1.25.25h13a3.17,3.17,0,0,0,1.25-.25,3.23,3.23,0,0,0,1.76-1.76,3.17,3.17,0,0,0,.25-1.25V83.15a8.15,8.15,0,1,1,16.3,0h0v24.46a3.36,3.36,0,0,0,.25,1.25,3.32,3.32,0,0,0,.71,1,3,3,0,0,0,1.06.71,3.17,3.17,0,0,0,1.25.25h13a3.17,3.17,0,0,0,1.25-.25,3.23,3.23,0,0,0,1.76-1.76,3.17,3.17,0,0,0,.25-1.25V79.89A24.51,24.51,0,0,0,92.93,55.43a23.88,23.88,0,0,0-11.41,3.23,3.26,3.26,0,0,0-.25-1.23,3.12,3.12,0,0,0-.72-1,3.06,3.06,0,0,0-1-.7,3.27,3.27,0,0,0-1.24-.25ZM42.39,62h6.52v42.39H42.39Zm26.09,0H75v2.66a3.26,3.26,0,0,0,2,3A3.23,3.23,0,0,0,80.52,67a17.92,17.92,0,0,1,30.35,12.92v24.46h-6.52V83.15a14.68,14.68,0,0,0-29.35,0v21.2H68.48Z"/></g></g></g></svg>