<svg xmlns="http://www.w3.org/2000/svg" viewBox="0 0 150 150"><defs><style>.cls-1{fill:#fefefe;}</style></defs><title>pinW</title><g id="Слой_2" data-name="Слой 2"><g id="Слой_1-2" data-name="Слой 1"><g id="Слой_1-2-2" data-name="Слой 1-2"><path class="cls-1" d="M75,0a75,75,0,1,0,75,75A75,75,0,0,0,75,0Zm0,6.52A68.48,68.48,0,1,1,6.52,75h0A68.43,68.43,0,0,1,74.9,6.52Zm1.86,22.83c-24.93,0-41,17.67-41,34.72,0,16.64,9.21,20.55,11.15,21.67s3.28.33,3.71-1.21l1.16-4.64a2.52,2.52,0,0,0-.53-2.53C50,75.78,47.21,72.89,47.21,65.7c0-12.82,10.11-26.79,28.47-26.79,18,0,24.17,11.73,24.17,21.44,0,12.08-5.78,30.13-18,30.13-7.58,0-9.77-5.86-9.77-8.71a10,10,0,0,1,.28-2.43c.09-.45,3.17-10.26,4.15-13.77,2.21-7.84.32-14.36-6.89-14.36-10.17,0-13.82,14.3-9.36,23.45L53,104.36s-1,4.87-1.21,7.73A88.39,88.39,0,0,0,52.38,125c.15,1.41.16,2.09.8,2.22s1.73-1,2.61-2.29c1.12-1.64,4.89-7,6.42-10.35a35.75,35.75,0,0,0,3-8.45c1.43-5.35,3.34-12.88,3.34-12.88s4,7,14.72,7c15.29,0,30.84-13.31,30.84-38.21C114.13,41.79,96.65,29.35,76.86,29.35Z"/></g></g></g></svg>