<svg xmlns="http://www.w3.org/2000/svg" viewBox="0 0 150 150"><defs><style>.cls-1{fill:#fefefe;}</style></defs><title>twW</title><g id="Слой_2" data-name="Слой 2"><g id="Слой_1-2" data-name="Слой 1"><g id="Слой_1-2-2" data-name="Слой 1-2"><path class="cls-1" d="M75,0a75,75,0,1,0,75,75A75,75,0,0,0,75,0Zm0,6.52A68.48,68.48,0,1,1,6.52,75h0A68.43,68.43,0,0,1,74.9,6.52Zm18.57,32.8A21.38,21.38,0,0,0,72.23,60.64v.25a47.94,47.94,0,0,1-31-17.07,3.64,3.64,0,0,0-.57-.54,3.07,3.07,0,0,0-.68-.39,3.23,3.23,0,0,0-.75-.22,3.48,3.48,0,0,0-.79,0,3.39,3.39,0,0,0-.77.15,3.09,3.09,0,0,0-.71.34,3.11,3.11,0,0,0-1.08,1.12A21.37,21.37,0,0,0,33,55a21.05,21.05,0,0,0,2.44,9.58,3.25,3.25,0,0,0-1.86,1.14,3,3,0,0,0-.54,1,3.13,3.13,0,0,0-.19,1.09V68a21,21,0,0,0,7.32,15.68,3.1,3.1,0,0,0-.8,3.32A21.23,21.23,0,0,0,50.75,99.6,32.3,32.3,0,0,1,36.91,103a30.06,30.06,0,0,1-3.91-.23,3.34,3.34,0,0,0-1.09.06A3.27,3.27,0,0,0,30.07,104a3.46,3.46,0,0,0,0,4.16,3.31,3.31,0,0,0,.81.73,54.38,54.38,0,0,0,29.44,8.63c17.52,0,31.36-7.35,40.61-17.85A56.46,56.46,0,0,0,115,62.74V61.61a40,40,0,0,0,8.43-8.75A3.26,3.26,0,0,0,124,51a3.39,3.39,0,0,0-.18-1,3.26,3.26,0,0,0-3-2.19,3.06,3.06,0,0,0-1,.14,20.24,20.24,0,0,0,1.63-3,3.37,3.37,0,0,0,.16-1,3.72,3.72,0,0,0-.14-1A3.27,3.27,0,0,0,121,42a2.83,2.83,0,0,0-.66-.72,3.14,3.14,0,0,0-.85-.49,3.45,3.45,0,0,0-1-.22,3.72,3.72,0,0,0-1,.08,3.22,3.22,0,0,0-.9.37,33.26,33.26,0,0,1-9.38,3.58A20.93,20.93,0,0,0,93.57,39.32Zm0,6.52a14.74,14.74,0,0,1,10.8,4.67,3.33,3.33,0,0,0,1.37.88,3.22,3.22,0,0,0,1.63.09c.5-.09.9-.41,1.38-.52a1.12,1.12,0,0,1-.15.14,3,3,0,0,0-.81.69,3.25,3.25,0,0,0-.55.91,3.45,3.45,0,0,0-.22,1,3.15,3.15,0,0,0,.12,1.06,3.75,3.75,0,0,0,.45,1,3.14,3.14,0,0,0,.74.76,3.28,3.28,0,0,0,2,.65c-.22.16-.36.43-.59.6a3.29,3.29,0,0,0-1,1.22,3.11,3.11,0,0,0-.32,1.56v2.2A50.32,50.32,0,0,1,96,95.23c-8.14,9.23-20,15.64-35.72,15.64A47.63,47.63,0,0,1,45,108.16c6-1.28,11.7-3.4,16.36-7.06a3.37,3.37,0,0,0,.68-.73,3.33,3.33,0,0,0,.39-2.9,3.21,3.21,0,0,0-.46-.88,3.14,3.14,0,0,0-.7-.71,3.21,3.21,0,0,0-.88-.46,3.09,3.09,0,0,0-1-.17c-4.62-.08-8.17-2.7-10.83-6.07a19.13,19.13,0,0,0,2.92-.38,3.25,3.25,0,0,0,1-.46,3.17,3.17,0,0,0,.79-.76,3.33,3.33,0,0,0,.63-2,3.52,3.52,0,0,0-.22-1.07,3.16,3.16,0,0,0-.56-.93,3.47,3.47,0,0,0-.83-.7,3.06,3.06,0,0,0-1-.39A14.67,14.67,0,0,1,40.15,72.13c1.39.34,2.6,1.08,4.08,1.13a3.35,3.35,0,0,0,1-.13,3.6,3.6,0,0,0,.94-.47,2.85,2.85,0,0,0,.74-.73,3.29,3.29,0,0,0,.48-.93,3,3,0,0,0,0-2,3.33,3.33,0,0,0-1.27-1.64A14.73,14.73,0,0,1,39.56,55a13.31,13.31,0,0,1,.78-2.91A54.17,54.17,0,0,0,75.81,68a2.71,2.71,0,0,0,.75,0,3,3,0,0,0,.72-.22,3.25,3.25,0,0,0,.65-.38,3,3,0,0,0,.55-.52,3,3,0,0,0,.41-.63,2.85,2.85,0,0,0,.25-.71,3.13,3.13,0,0,0,0-1.49A14.83,14.83,0,0,1,93.57,45.84Z"/></g></g></g></svg>